PathFileType	4	(X/Y/Z)	Patient4_TMGait_0pt5_02_left_15.trc.trc
DataRate	CameraRate	NumFrames	NumMarkers	Units	OrigDataRate	OrigDataStartFrame	OrigNumFrames
75.675675675676	75.675675675676	4	33	mm	75.675675675676	124	       141
Frame#	Time	Sacral			L.Shoulder			Chest			R.Shoulder			Neck			R.ASIS			L.ASIS			R.Thigh.Superior			R.Thigh.Lateral			R.Thigh.Inferior			R.Patella			L.Thigh.Superior			L.Thigh.Lateral			L.Thigh.Inferior			L.Patella			L.Shank.Superior			L.Shank.Lateral			L.Shank.Inferior			R.Shank.Superior			R.Shank.Lateral			R.Shank.Inferior			R.Heel			R.Midfoot.Superior			R.Midfoot.Lateral			R.Toe			L.Heel			L.Midfoot.Lateral			L.Midfoot.Superior			L.Toe			L.Elbow			L.Wrist			R.Elbow			R.Wrist			
		X1	Y1	Z1	X2	Y2	Z2	X3	Y3	Z3	X4	Y4	Z4	X5	Y5	Z5	X6	Y6	Z6	X7	Y7	Z7	X8	Y8	Z8	X9	Y9	Z9	X10	Y10	Z10	X11	Y11	Z11	X12	Y12	Z12	X13	Y13	Z13	X14	Y14	Z14	X15	Y15	Z15	X16	Y16	Z16	X17	Y17	Z17	X18	Y18	Z18	X19	Y19	Z19	X20	Y20	Z20	X21	Y21	Z21	X22	Y22	Z22	X23	Y23	Z23	X24	Y24	Z24	X25	Y25	Z25	X26	Y26	Z26	X27	Y27	Z27	X28	Y28	Z28	X29	Y29	Z29	X30	Y30	Z30	X31	Y31	Z31	X32	Y32	Z32	X33	Y33	Z33	

124	20.555357142857	580.878047385406	1008.786078679266	554.315544128613	753.566222312355	1439.264137149564	376.644327561225	870.055360821889	1357.130074310297	521.689867391502	807.399024997633	1424.330303009890	707.283647242060	768.837420915692	1490.241290231156	530.480175826018	810.317614115624	935.743084303530	654.170071408765	780.132198609186	955.458657991437	381.246530960363	808.203947400303	724.418691132847	627.288705542360	703.989159294591	631.588571427295	688.585271022249	763.971107835890	565.469912325489	609.019015549623	747.501965476231	479.959966626480	612.307153398758	847.892507841842	764.607322358298	409.707061404611	789.000305665126	637.232179872856	337.915955851967	891.261071895536	575.842083702216	396.961013260874	914.581622297779	509.884146080499	395.609240516527	897.185215582561	438.072660285616	386.413223551342	827.761380885002	309.144739121062	338.568228858582	912.999186769542	209.405751724440	394.207853219541	708.584261934667	398.262483762423	616.772836762773	627.167911263487	301.123053442837	675.940487457489	659.944234148209	203.894171366755	610.293821161165	513.716837879662	44.139314633150	572.781175914440	684.220742529215	95.575581838113	611.052988441877	595.315869632876	35.817134651409	649.219263063415	803.492807992060	42.698317006827	642.663478666367	821.846915314256	37.773982324583	434.498993384804	894.961402062136	38.765226239274	353.584464718787	971.559055549116	108.937363867061	374.727557539755	1102.355820342683	69.732815949477	346.693211868075	607.175409341829	1118.517410853006	269.267709313253	579.416168871698	858.389826832592	271.091970309863	932.679473431040	1107.655836255991	811.519387340408	1169.612734437073	1171.869935961839	754.247552045188	
125	20.568571428571	581.949844458319	1007.589055710884	552.103195394670	752.838295793299	1438.118436660944	373.834513041456	869.607217215550	1357.006793659606	519.261821023458	806.225491745352	1424.257346220952	704.665989853466	767.682286867692	1489.627799276573	527.564741717083	811.440855707440	935.150939462666	652.801719875759	781.921534623354	954.264007897925	379.915215442357	808.731183042111	723.518653579191	626.560302561171	703.403108462130	631.216480896403	687.452442020578	763.264126013969	564.563548410200	608.344961743597	745.996268894954	478.687117200204	611.548134735228	849.422713648106	762.537134801971	408.888401394494	789.360759243235	635.479549059845	337.784626988980	891.523426541588	574.072123705813	397.134299159083	913.905511726833	507.332195905104	396.181073948040	895.954826131199	435.309450368435	386.930700632859	824.869608075525	307.157635397443	339.323004294808	908.441816419088	206.410203409059	395.521324527863	705.988507319883	397.475713558951	616.069159984317	623.364197912674	301.429572067269	675.503836555299	654.903925951555	203.609542561668	610.049732002793	507.169747201854	44.654538437896	572.961022155956	677.866760681112	95.653165130356	611.251645168959	588.782562768862	35.937764348905	649.278535461704	796.977960242341	42.261160904961	642.742704705575	813.866136826575	37.106689558440	435.452959037129	887.255039670257	37.213932939894	354.694246514182	965.520508401704	105.196548183879	376.946908215351	1095.689608112162	62.935530056534	349.012336932558	608.613949165651	1116.160285805323	266.899789245428	583.855590444464	855.604493760796	268.740853271762	932.359301872023	1107.569441425134	808.717958611031	1168.223873873458	1173.803897048259	749.694604990062	
126	20.581785714286	582.908281425678	1006.625462512537	549.783985045740	752.302015598259	1437.072950141279	370.941786648934	869.289290142598	1356.936610658436	516.772711226479	805.226455246293	1424.323424836834	701.974988073165	766.753923440244	1489.146001417342	524.534832529064	812.510361233859	934.604175871725	651.230522816286	783.578991169682	953.311039338718	378.418162006483	809.410610679055	722.724588636770	625.555405980125	703.176806105513	630.854251057871	686.098370320696	762.962376363076	563.723431074957	607.377050917545	744.897652960609	477.441017061186	610.527954412353	850.924712489191	760.896139050746	408.021976408300	790.092169578149	634.285293108728	337.367441295947	892.022042588301	572.844231767227	397.265472756018	913.416722133063	505.257107698081	396.617902027149	894.985534850968	433.031711034252	387.196269176813	822.419139152273	305.685814801495	339.559187454181	904.185866779901	203.956153414583	396.465818970044	703.792748034779	396.658903274715	615.208806369286	619.868647833879	301.831890741092	674.951289415070	650.063586891010	203.381792216891	609.759736024860	500.663931938436	45.395626328944	573.175512162567	671.663351082609	95.846633814284	611.590084160394	582.296833729560	36.159918329774	649.352537202895	790.521087883604	41.769848732565	642.835220244071	806.343967238527	36.720039857602	436.019602105493	880.023785735718	36.120326340410	355.441598037615	959.679656290439	102.191264296185	378.771537834601	1089.314297209436	57.353571681283	351.011756897910	610.690767059409	1113.672207225593	264.356268709938	589.258675590735	852.671049192054	266.067151013000	931.435739683576	1107.313947997658	806.140716467884	1166.688572385924	1174.396839463186	745.552269478215	
127	20.595000000000	583.731147030988	1005.944680685877	547.371350988528	751.947108683924	1436.183431186851	368.005924103673	869.103349648825	1356.934239182175	514.230693211445	804.462487280559	1424.551464474404	699.228984179165	766.075697229222	1488.829259986634	521.434593488838	813.488530790890	934.146900599209	649.438830546724	785.051414830596	952.652527454618	376.714931656410	810.163143486047	722.080800605388	624.239697614765	703.273727211216	630.535603415544	684.534416279926	763.033863682006	562.981968859873	606.128983073830	744.208431161285	476.243473926015	609.300830389765	852.418684422773	759.838409837703	407.085622208042	791.265270859014	633.710747861635	336.658792496879	892.824570853827	572.217545874874	397.281717920712	913.181426022239	503.704067673118	396.851741541218	894.303886236068	431.267662906693	387.201179273477	820.391341250124	304.772711981936	339.278924637409	900.185925327268	202.070515422903	397.038572928815	701.984798335799	395.839299801416	614.225039175400	616.667816886482	302.361118100807	674.294574019895	645.429274729540	203.248428083251	609.447583350556	494.211278408146	46.419617200474	573.425733231506	665.615542470631	96.147830480468	612.041186949762	575.864460738993	36.515873960225	649.441784963889	784.125607005712	41.230034113043	642.940216824412	799.287090479887	36.575991608188	436.264133382842	873.234415738105	35.446792116010	355.858724168691	953.966611297659	99.965378793349	380.141765418499	1083.174211917524	53.121910883915	352.575364989707	613.386480422958	1111.133745519674	261.660098215692	595.623563886671	849.691209251306	263.072686086484	929.905679975593	1106.898204671086	803.779306049921	1165.035225202234	1173.589597340487	741.843768586326	
